<svg width="110" height="109" viewBox="0 0 110 109" fill="none" xmlns="http://www.w3.org/2000/svg">
<path d="M107 50.2001C103.8 47.0001 98.7 47.0001 95.6 50.2001L81.4 64.3001L62 44.9001C58.8 41.8001 53.7 41.8001 50.6 44.9001L25.5 70.0001C22.3 73.1001 22.3 78.3001 25.5 81.4001L50.6 106.6C50.7 106.7 50.8 106.7 50.9 106.8C51.2 107.1 51.5 107.4 51.9 107.6C52.2 107.8 52.5 107.9 52.8 108.1C53 108.2 53.1 108.3 53.3 108.4C53.6 108.5 54 108.6 54.4 108.7C54.5 108.7 54.7 108.8 54.8 108.8C55.3 108.9 55.8 109 56.4 109C56.9 109 57.4 108.9 57.9 108.9C58.1 108.9 58.2 108.8 58.4 108.8C58.7 108.7 59.1 108.6 59.4 108.5C59.6 108.4 59.8 108.3 59.9 108.2C60.2 108.1 60.5 107.9 60.8 107.7C61.1 107.5 61.4 107.2 61.7 107C61.8 106.9 62 106.8 62.1 106.7L107.1 61.7001C110.1 58.4001 110.1 53.3001 107 50.2001ZM56.3 62.1001L70 75.7001L56.3 89.4001L42.6 75.7001L56.3 62.1001Z" fill="white"/>
<path d="M8.89999 61.6C6.79999 61.6 4.79999 60.8 3.19999 59.2C-1.21593e-05 56 -1.21593e-05 50.9 3.19999 47.8L48.2 2.80002C51.4 -0.399976 56.5 -0.399976 59.6 2.80002L84.5 27.7C87.7 30.9 87.7 36 84.5 39.1C81.3 42.3 76.2 42.3 73.1 39.1L53.9 19.9L14.7 59.2C13.1 60.8 11 61.6 8.89999 61.6Z" fill="white"/>
</svg>
