<svg width="153" height="57" viewBox="0 0 153 57" fill="none" xmlns="http://www.w3.org/2000/svg">
<g id="Proud Nerds">
<path fill-rule="evenodd" clip-rule="evenodd" d="M97.9581 9.71193C97.9581 7.34426 96.2937 5.97538 93.9057 5.97538C91.5536 5.97538 89.8892 7.34426 89.8892 9.71193V17.4063C89.8892 19.7737 91.5536 21.1426 93.9057 21.1426C96.2937 21.1426 97.9581 19.7737 97.9581 17.4063V9.71193ZM103.639 17.9229C103.639 23.7676 98.2111 26.2836 93.9055 26.2836C89.5997 26.2836 84.2442 23.7676 84.2442 17.9229V9.19291C84.2442 3.34755 89.5997 0.83252 93.9055 0.83252C98.2111 0.83252 103.639 3.34755 103.639 9.19291V17.9229Z" fill="#FFFFFF"/>
<path fill-rule="evenodd" clip-rule="evenodd" d="M127.276 2.50952V18.3096C127.276 24.1056 121.923 26.2839 117.561 26.2839C113.198 26.2839 107.882 24.1056 107.882 18.3096V2.50952C107.882 1.66034 108.285 1.43879 108.945 1.43879H112.575C113.235 1.43879 113.638 1.66034 113.638 2.50952V17.4974C113.638 19.8234 115.141 21.1525 117.561 21.1525C119.98 21.1525 121.52 19.8234 121.52 17.4974V2.50952C121.52 1.66034 121.923 1.43879 122.583 1.43879H126.213C126.873 1.43879 127.276 1.66034 127.276 2.50952Z" fill="#FFFFFF"/>
<path fill-rule="evenodd" clip-rule="evenodd" d="M146.291 10.2441C146.291 7.92307 144.583 6.56041 142.131 6.56041H138.564V20.5581H142.131C144.583 20.5581 146.291 19.2322 146.291 16.8747V10.2441ZM152.126 9.72765V17.3897C152.126 23.1727 146.552 25.6779 142.131 25.6779H133.809C132.954 25.6779 132.731 25.2726 132.731 24.6092V2.50724C132.731 1.84473 132.954 1.43879 133.809 1.43879H142.131C146.552 1.43879 152.126 3.98115 152.126 9.72765Z" fill="#FFFFFF"/>
<path fill-rule="evenodd" clip-rule="evenodd" d="M54.0996 31.7373H50.6128C49.9592 31.7373 49.5597 31.9583 49.5597 32.8059V45.5881L41.8599 32.9901C41.3876 32.2533 41.1334 31.7373 40.2254 31.7373H36.8115C35.976 31.7373 35.7583 32.1432 35.7583 32.8059V54.9077C35.7583 55.755 36.1578 55.9763 36.8115 55.9763H40.4072C41.0609 55.9763 41.4604 55.755 41.4604 54.9077V42.0883L49.1601 54.7238C49.632 55.4606 49.8864 55.9763 50.7944 55.9763H54.0996C54.9348 55.9763 55.1528 55.5711 55.1528 54.9077V32.8059C55.1528 31.9583 54.7533 31.7373 54.0996 31.7373Z" fill="#FFFFFF"/>
<path fill-rule="evenodd" clip-rule="evenodd" d="M78.9245 50.8188H67.0794V45.9569H77.0308C77.8847 45.9569 78.1076 45.5516 78.1076 44.8882V42.0152C78.1076 41.3522 77.8847 40.9473 77.0308 40.9473H67.0794V36.9317H78.293C79.1473 36.9317 79.3699 36.5265 79.3699 35.8631V32.8059C79.3699 32.1432 79.1473 31.7373 78.293 31.7373H62.2896C61.4354 31.7373 61.2128 32.1432 61.2128 32.8059V54.9077C61.2128 55.5711 61.4354 55.9763 62.2896 55.9763H78.9245C79.7782 55.9763 80.0012 55.5711 80.0012 54.9077V51.8875C80.0012 51.2242 79.7782 50.8188 78.9245 50.8188Z" fill="#FFFFFF"/>
<path fill-rule="evenodd" clip-rule="evenodd" d="M121.504 47.2132C121.504 49.5739 119.814 50.9022 117.389 50.9022H113.862V36.8852H117.389C119.814 36.8852 121.504 38.2494 121.504 40.5739V47.2132ZM117.389 31.7576H109.159C108.313 31.7576 108.093 32.1641 108.093 32.8278V54.9598C108.093 55.6242 108.313 56.03 109.159 56.03H117.389C121.761 56.03 127.272 53.5214 127.272 47.7303V40.058C127.272 34.3034 121.761 31.7576 117.389 31.7576Z" fill="#FFFFFF"/>
<path fill-rule="evenodd" clip-rule="evenodd" d="M145.416 41.9378C143.947 41.3479 138.545 40.5364 138.545 38.2863C138.545 36.6263 140.566 36.147 141.779 36.147C142.881 36.147 144.204 36.4784 144.902 37.1427C145.343 37.5857 145.526 37.8806 145.673 38.2491C145.857 38.7291 145.967 39.2456 146.666 39.2456H150.266C151.111 39.2456 151.332 39.0979 151.332 38.2126C151.332 33.3433 146.225 31.204 141.558 31.204C136.966 31.3882 132.63 33.7489 132.63 38.5442C132.63 43.2294 136.047 44.7043 139.758 45.8852C142.881 46.8809 146.151 46.9181 146.151 48.9837C146.151 51.0496 144.534 51.4918 142.55 51.4918C141.191 51.4918 139.685 51.1595 138.95 50.2745C138.472 49.7211 138.288 49.2418 138.252 48.7626C138.178 47.8403 137.774 47.7294 136.929 47.7294H133.365C132.52 47.7294 132.3 47.9136 132.3 48.7626C132.3 53.926 137.59 56.5825 142.183 56.5825C147.841 56.5825 151.956 54.0742 151.956 48.8358C151.956 43.8193 148.061 42.7494 145.416 41.9378Z" fill="#FFFFFF"/>
<path fill-rule="evenodd" clip-rule="evenodd" d="M103.533 55.9763H99.1896C98.3056 55.9763 97.8649 55.6431 97.3493 54.871L93.3736 48.9293C93.0423 48.4876 92.9688 48.0819 92.9688 47.0487V44.0955C92.9688 43.4318 93.1892 43.0261 94.0358 43.0261H94.7715C96.5759 43.0261 98.2697 41.7738 98.2697 40.0374C98.2697 38.1207 96.7962 36.9041 94.8825 36.9041H89.9865V54.907C89.9865 55.7538 89.5819 55.9763 88.9195 55.9763H85.2746C84.6124 55.9763 84.2449 55.7538 84.2449 54.907V32.8069C84.2449 32.1429 84.428 31.7373 85.2746 31.7373H94.5514C98.5632 31.7373 100.33 32.5484 101.877 34.0985C103.239 35.4264 104.012 37.5291 104.012 39.8902C104.012 43.7653 101.177 46.4567 98.896 47.2319L104.086 54.7957C104.417 55.3124 104.233 55.9763 103.533 55.9763Z" fill="#FFFFFF"/>
<path fill-rule="evenodd" clip-rule="evenodd" d="M79.8706 25.7551H75.5285C74.6445 25.7551 74.2039 25.4228 73.6884 24.6536L69.7132 18.7335C69.3822 18.2935 69.3088 17.8895 69.3088 16.8599V13.9176C69.3088 13.2564 69.5291 12.8522 70.3756 12.8522H71.1113C72.9153 12.8522 74.6084 11.6042 74.6084 9.87411C74.6084 7.96463 73.1354 6.75247 71.2221 6.75247H66.327V24.6897C66.327 25.5334 65.9225 25.7551 65.2602 25.7551H61.6161C60.9537 25.7551 60.5868 25.5334 60.5868 24.6897V2.67024C60.5868 2.00874 60.7696 1.60453 61.6161 1.60453H70.891C74.9021 1.60453 76.6685 2.41271 78.2149 3.95717C79.5771 5.27993 80.3502 7.37503 80.3502 9.72767C80.3502 13.5885 77.5153 16.2703 75.2348 17.0424L80.4236 24.5788C80.7547 25.0934 80.5705 25.7551 79.8706 25.7551Z" fill="#FFFFFF"/>
<path fill-rule="evenodd" clip-rule="evenodd" d="M49.5656 15.496C49.5656 16.2808 49.3891 16.9676 49.0353 17.556C48.6818 18.1449 48.1785 18.6 47.5267 18.9218C46.8739 19.2438 46.1238 19.4046 45.2749 19.4046C44.4418 19.4046 43.7034 19.2398 43.059 18.9101C42.4142 18.5807 41.9155 18.1213 41.5619 17.5329C41.2082 16.944 41.0314 16.265 41.0314 15.496V8.05518H49.5656V15.496ZM0 1.60453V8.05588H34.808V15.3319C34.808 17.4667 35.2402 19.3465 36.1049 20.9713C36.9691 22.5955 38.1911 23.8554 39.7705 24.7503C41.3504 25.645 43.1852 26.0927 45.2756 26.0927C47.3661 26.0927 49.205 25.645 50.7923 24.7503C52.3796 23.8554 53.6096 22.5955 54.4817 20.9713C55.3542 19.3465 55.7903 17.4667 55.7903 15.3319V1.60453H0Z" fill="#FFFFFF"/>
</g>
</svg>
