<svg width="88" height="55" viewBox="0 0 88 55" fill="none" xmlns="http://www.w3.org/2000/svg">
<g clip-path="url(#clip0_1951_19017)">
<mask id="mask0_1951_19017" style="mask-type:alpha" maskUnits="userSpaceOnUse" x="0" y="0" width="88" height="55">
<path d="M0 0H87.8992V54.9517H0V0Z" fill="white"/>
</mask>
<g mask="url(#mask0_1951_19017)">
<path fill-rule="evenodd" clip-rule="evenodd" d="M87.8992 0C87.8992 0.101648 87.8969 0.203296 87.8969 0.304944C87.8969 1.80481 87.8972 3.30469 87.8968 4.80456C87.8968 5.11846 87.9195 5.09544 87.6135 5.09626C87.3943 5.09687 87.1749 5.09646 86.9557 5.09646C58.0925 5.09646 29.2295 5.09646 0.366355 5.09585C0.240235 5.09585 0.113913 5.08852 -0.012207 5.08444C-0.012207 3.38963 -0.012207 1.69481 -0.012207 0C29.2916 0 58.5954 0 87.8992 0Z" fill="#10D1BB"/>
<path fill-rule="evenodd" clip-rule="evenodd" d="M-0.012207 49.8794C0.105802 49.881 0.223811 49.8839 0.341821 49.8839C29.3855 49.8841 58.4289 49.8841 87.4726 49.8843C87.5904 49.8843 87.7084 49.8882 87.8262 49.8912C87.8568 49.892 87.8895 49.9256 87.8905 49.9574C87.8935 50.0419 87.8968 50.1265 87.8968 50.2112C87.8972 51.7021 87.897 53.1932 87.8972 54.6844C87.8972 54.7777 87.8992 54.8707 87.8992 54.964C58.5954 54.964 29.2916 54.964 -0.012207 54.964C-0.012207 53.269 -0.012207 51.5742 -0.012207 49.8794Z" fill="#10D1BB"/>
</g>
<path fill-rule="evenodd" clip-rule="evenodd" d="M87.9499 26.2872C87.8909 26.2894 87.8321 26.2937 87.7731 26.2939C86.6095 26.2943 85.4456 26.2941 84.2819 26.2941C84.2312 26.2941 84.1807 26.2939 84.13 26.2927C84.0767 26.2914 84.0493 26.2676 84.0481 26.2203C84.0463 26.1525 84.0455 26.0849 84.0455 26.017C84.0453 25.7035 84.0455 25.39 84.0453 25.0767C84.0451 25.0344 84.0435 24.992 84.042 24.9498C84.0412 24.9287 84.0017 24.9091 83.9847 24.9217C83.9102 24.9765 83.836 25.0315 83.7624 25.0875C83.3312 25.4165 82.8688 25.6921 82.3702 25.905C81.8641 26.1209 81.3398 26.2703 80.7944 26.3462C80.401 26.4012 80.0062 26.4371 79.6098 26.4208C79.29 26.4075 78.9705 26.3896 78.6517 26.3499C77.9206 26.2588 77.2127 26.0792 76.529 25.807C74.899 25.1582 73.6299 24.0762 72.7142 22.5757C72.204 21.7397 71.8364 20.8438 71.6192 19.8876C71.5387 19.5332 71.4834 19.1736 71.44 18.8116C71.4005 18.4831 71.3863 18.1533 71.3688 17.8237C71.3417 17.315 71.3775 16.8084 71.438 16.3026C71.5951 14.984 72.0558 13.7785 72.7835 12.6755C73.5972 11.4422 74.6725 10.4993 75.9756 9.81527C76.6502 9.46123 77.3565 9.19173 78.0984 9.02062C78.4595 8.93731 78.8251 8.87844 79.1941 8.8379C79.7832 8.77292 80.3728 8.77658 80.9624 8.80551C81.206 8.81753 81.4487 8.85155 81.6908 8.88618C82.0499 8.93792 82.4043 9.00982 82.7537 9.10577C84.1234 9.48262 85.316 10.1679 86.3146 11.1862C86.6833 11.5622 86.9941 11.9827 87.2492 12.4445C87.2695 12.4811 87.2859 12.52 87.2995 12.5598C87.3039 12.5724 87.2982 12.5964 87.2883 12.6052C87.225 12.6606 87.1606 12.7152 87.0941 12.7665C86.6056 13.1426 86.1165 13.5178 85.6279 13.8932C85.0654 14.3255 84.5031 14.7577 83.9407 15.1898C83.9005 15.2205 83.8587 15.2493 83.8174 15.2782C83.7987 15.2912 83.7667 15.2819 83.7539 15.2599C83.7203 15.2012 83.6876 15.1421 83.6537 15.0835C83.5353 14.8777 83.4003 14.6836 83.2446 14.5045C82.6685 13.8413 81.9513 13.4043 81.1103 13.1684C80.7838 13.0768 80.4488 13.0313 80.1112 13.0315C78.9228 13.0324 77.9559 13.5035 77.2166 14.4383C76.8342 14.9219 76.5801 15.4729 76.4134 16.0645C76.2301 16.7145 76.176 17.3798 76.2208 18.052C76.2571 18.5945 76.3581 19.1249 76.5576 19.634C76.7831 20.2086 77.098 20.724 77.5463 21.1508C78.0408 21.6213 78.6219 21.9277 79.2886 22.074C79.7211 22.1691 80.1577 22.1931 80.5961 22.155C81.4365 22.0819 82.202 21.7955 82.8907 21.3056C83.2083 21.0799 83.5025 20.8269 83.7669 20.5401C83.7744 20.5319 83.7699 20.5111 83.7677 20.4969C83.7671 20.4922 83.7557 20.4861 83.7491 20.4859C83.6732 20.483 83.5976 20.4796 83.5217 20.4796C82.7375 20.4792 81.9532 20.4794 81.1691 20.4794C81.1015 20.4794 81.034 20.48 80.9665 20.4788C80.8765 20.4773 80.854 20.4529 80.8523 20.3537C80.8511 20.2858 80.8519 20.2182 80.8519 20.1504C80.8519 19.4981 80.8519 18.8457 80.8519 18.1934C80.8519 17.8628 80.8515 17.5324 80.8523 17.202C80.8523 17.1598 80.8546 17.1172 80.8611 17.0757C80.8631 17.0624 80.8799 17.048 80.8937 17.0408C80.9075 17.0335 80.9258 17.0329 80.942 17.0325C80.9927 17.0313 81.0432 17.0313 81.0938 17.0313C83.337 17.0313 85.5802 17.0313 87.8234 17.0313C87.8656 17.0313 87.9078 17.0325 87.9499 17.0331C87.9499 20.1178 87.9499 23.2025 87.9499 26.2872Z" fill="white"/>
<path fill-rule="evenodd" clip-rule="evenodd" d="M46.7062 36.9998C46.7062 39.7958 46.7066 42.5917 46.7056 45.3877C46.7054 45.7397 46.7512 45.698 46.3976 45.6984C45.3264 45.6997 44.2554 45.6988 43.1844 45.6988C43.1168 45.6988 43.0495 45.6976 42.982 45.6978C42.9459 45.6978 42.9165 45.6841 42.893 45.658C42.8648 45.6267 42.8372 45.5949 42.8109 45.5621C41.3796 43.7838 39.9482 42.0056 38.5171 40.2271C37.7326 39.2522 36.9487 38.277 36.1644 37.3021C36.1486 37.2824 36.1308 37.264 36.1137 37.2453C36.0908 37.2202 36.1251 37.2469 36.0914 37.2471C36.0845 37.2471 36.0734 37.2526 36.0716 37.2579C36.0665 37.2738 36.0629 37.2909 36.0627 37.3076C36.0614 37.3921 36.0614 37.4769 36.0614 37.5616C36.0614 40.1627 36.0614 42.7638 36.0612 45.3649C36.0612 45.4494 36.0598 45.5342 36.0576 45.6187C36.0564 45.6609 36.0191 45.6955 35.9744 45.6967C35.9154 45.6986 35.8564 45.6986 35.7974 45.6986C34.3805 45.6988 32.9638 45.6988 31.5469 45.6988C31.4964 45.6988 31.4457 45.6988 31.3952 45.698C31.3198 45.6969 31.2782 45.6764 31.2796 45.5715C31.2806 45.5036 31.2796 45.4358 31.2796 45.368C31.2796 39.7932 31.2792 34.2182 31.28 28.6433C31.2802 28.2562 31.2289 28.3019 31.6105 28.3015C32.6394 28.3 33.6682 28.3009 34.6972 28.3009C34.7562 28.3009 34.8154 28.3043 34.8742 28.3002C34.9665 28.2941 35.0294 28.3294 35.088 28.4043C35.6448 29.1171 36.2056 29.8268 36.7648 30.5379C38.2594 32.4385 39.7536 34.3396 41.248 36.2404C41.4361 36.4798 41.6239 36.7191 41.8131 36.9576C41.8388 36.9902 41.8711 37.0177 41.9017 37.0463C41.9037 37.0483 41.9193 37.0414 41.9228 37.0353C41.9301 37.022 41.9378 37.0069 41.9382 36.9923C41.9398 36.9161 41.9394 36.8399 41.9394 36.7637C41.9394 34.0524 41.9394 31.3413 41.9394 28.63C41.9394 28.5539 41.939 28.4775 41.9398 28.4013C41.9408 28.3247 41.9645 28.3035 42.0493 28.3017C42.0915 28.3009 42.1336 28.3011 42.1758 28.3011C43.6096 28.3009 45.0433 28.3009 46.4769 28.3011C46.519 28.3011 46.5612 28.3009 46.6034 28.3019C46.6857 28.3041 46.7046 28.3235 46.7056 28.4088C46.7066 28.485 46.7062 28.5614 46.7062 28.6376C46.7062 31.4251 46.7062 34.2125 46.7062 36.9998Z" fill="white"/>
<path fill-rule="evenodd" clip-rule="evenodd" d="M69.2421 17.5921C69.2421 20.388 69.2427 23.1838 69.2413 25.9796C69.2411 26.3424 69.2944 26.2929 68.9408 26.2935C67.8615 26.2952 66.782 26.2942 65.7026 26.2939C65.6351 26.2939 65.5676 26.2925 65.5003 26.2919C65.464 26.2915 65.4368 26.2744 65.4143 26.2467C65.2495 26.043 65.084 25.8401 64.9198 25.636C62.8897 23.1133 60.86 20.5904 58.8299 18.0682C58.7667 17.9898 58.6987 17.9154 58.6318 17.84C58.6298 17.8376 58.6128 17.8429 58.6097 17.8484C58.6022 17.862 58.5951 17.8779 58.5947 17.893C58.5931 17.9692 58.5937 18.0454 58.5937 18.1218C58.5937 20.7396 58.5937 23.3576 58.5935 25.9754C58.5935 26.0601 58.5919 26.1448 58.59 26.2294C58.5894 26.2612 58.5584 26.2893 58.5231 26.2903C58.4643 26.2923 58.4053 26.2939 58.3463 26.2939C58.085 26.2944 57.8236 26.2942 57.562 26.2942C56.4067 26.2942 55.2513 26.2942 54.096 26.2939C54.0203 26.2939 53.9443 26.2921 53.8689 26.2872C53.8561 26.2864 53.8409 26.2673 53.834 26.2532C53.8269 26.2387 53.8269 26.22 53.8267 26.2033C53.8259 26.1271 53.8257 26.0507 53.8257 25.9745C53.8257 20.3914 53.8257 14.8081 53.8259 9.225C53.8259 9.14047 53.8279 9.05573 53.8301 8.97119C53.8312 8.93656 53.8604 8.90641 53.8926 8.90498C53.9348 8.90335 53.9769 8.9021 54.0191 8.9021C55.1406 8.9021 56.2623 8.9021 57.3838 8.9021C57.4177 8.9021 57.4513 8.90356 57.485 8.90356C57.5217 8.90335 57.5497 8.92169 57.5718 8.94797C57.6154 8.99971 57.6571 9.05287 57.6989 9.10604C59.8154 11.7974 61.9316 14.4889 64.0483 17.18C64.1683 17.333 64.2904 17.4844 64.4106 17.6372C64.4236 17.6537 64.4356 17.6589 64.453 17.6449C64.4585 17.6402 64.465 17.6329 64.4652 17.6266C64.4678 17.542 64.4708 17.4575 64.4708 17.3729C64.4713 15.3396 64.471 13.3062 64.471 11.273C64.471 10.5782 64.471 9.88358 64.4715 9.18874C64.4715 9.11276 64.4721 9.03637 64.4792 8.9606C64.4808 8.94206 64.5065 8.91517 64.5254 8.91089C64.5657 8.90152 64.6089 8.90234 64.6509 8.90234C66.1268 8.9021 67.6025 8.9021 69.0783 8.90234C69.1121 8.90234 69.1464 8.90071 69.1792 8.906C69.2032 8.90987 69.2265 8.92393 69.2322 8.95163C69.2372 8.97628 69.2409 9.00174 69.2413 9.0268C69.2427 9.10298 69.2421 9.17937 69.2421 9.25556C69.2421 12.0345 69.2421 14.8132 69.2421 17.5921Z" fill="white"/>
<path fill-rule="evenodd" clip-rule="evenodd" d="M24.7346 22.1921C25.0375 22.1874 25.3571 22.1705 25.6712 22.0994C26.3642 21.9422 26.9543 21.5989 27.4486 21.0901C27.788 20.7407 28.0395 20.3311 28.2299 19.8839C28.5214 19.1983 28.6539 18.478 28.6794 17.7361C28.6883 17.4737 28.6737 17.2122 28.6468 16.95C28.6084 16.578 28.5369 16.214 28.4294 15.8571C28.2542 15.2747 27.9788 14.7451 27.5703 14.2925C26.9194 13.5716 26.1112 13.1581 25.1446 13.0764C24.7754 13.0452 24.4043 13.0481 24.0349 13.1073C23.7759 13.1491 23.5229 13.2069 23.2792 13.3033C22.61 13.5679 22.0697 13.9983 21.6522 14.5852C21.1964 15.2261 20.9601 15.9514 20.8403 16.7216C20.7894 17.0492 20.7811 17.3788 20.7801 17.7094C20.7785 18.2295 20.8553 18.7385 20.994 19.238C21.1588 19.8312 21.4198 20.3781 21.8113 20.8552C22.2789 21.4248 22.8615 21.8256 23.5683 22.0389C23.9432 22.152 24.3283 22.1848 24.7346 22.1921ZM33.534 17.6375C33.5145 18.0339 33.4979 18.3969 33.4551 18.7593C33.2353 20.6244 32.2726 22.7034 30.5594 24.2181C29.572 25.0912 28.4482 25.7227 27.1852 26.0998C26.8136 26.2106 26.4348 26.287 26.0516 26.347C25.3983 26.4495 24.7413 26.467 24.0841 26.4283C22.8657 26.3566 21.7128 26.0399 20.6369 25.4518C18.5578 24.3149 17.1567 22.6068 16.3856 20.3665C16.2313 19.918 16.1195 19.4578 16.0429 18.9901C15.9399 18.3613 15.9034 17.7271 15.9415 17.091C16.0038 16.0511 16.24 15.0515 16.6627 14.0988C17.5683 12.057 19.0408 10.5737 21.0455 9.61625C21.6875 9.30968 22.3596 9.09396 23.0569 8.96175C23.3793 8.90064 23.7052 8.85685 24.0341 8.83648C24.295 8.82018 24.5554 8.80124 24.8169 8.80203C25.2223 8.80327 25.6247 8.8379 26.0266 8.88801C26.5972 8.95911 27.1538 9.08785 27.6934 9.28564C28.9726 9.75457 30.0898 10.4773 31.0311 11.4671C32.1187 12.6111 32.8487 13.9556 33.2463 15.4852C33.3552 15.9038 33.4314 16.3281 33.4778 16.7571C33.5105 17.0598 33.5176 17.3653 33.534 17.6375Z" fill="white"/>
<path fill-rule="evenodd" clip-rule="evenodd" d="M24.3391 36.9536C24.3512 36.3634 24.2567 35.7723 24.0765 35.195C23.8952 34.6138 23.6103 34.0897 23.1951 33.643C22.7001 33.1107 22.1056 32.7426 21.3982 32.567C21.1932 32.5161 20.9845 32.4921 20.7749 32.4699C20.3002 32.4193 19.8312 32.4574 19.3689 32.565C18.7379 32.7119 18.1993 33.0317 17.7374 33.4845C17.3706 33.844 17.0967 34.2677 16.8907 34.7369C16.6082 35.3802 16.4797 36.0591 16.444 36.7568C16.4126 37.3697 16.4837 37.9739 16.6407 38.5669C16.7804 39.0945 16.9974 39.5877 17.3124 40.034C17.7435 40.6445 18.3056 41.0875 19.0019 41.3558C19.2785 41.4624 19.566 41.519 19.8602 41.5557C20.342 41.6155 20.8183 41.596 21.2929 41.4984C22.0726 41.3385 22.7145 40.9419 23.237 40.3467C23.5694 39.9682 23.8094 39.5323 23.9814 39.0593C24.2267 38.3848 24.3486 37.6885 24.3391 36.9536ZM20.3981 45.8446C19.8951 45.831 19.4484 45.8141 19.0057 45.7481C18.0736 45.6089 17.1896 45.3215 16.3566 44.8752C14.4279 43.8418 13.0643 42.2992 12.2372 40.2715C12.0164 39.7299 11.8532 39.1703 11.7453 38.596C11.6845 38.2719 11.634 37.9452 11.6218 37.6142C11.615 37.428 11.5947 37.2422 11.5935 37.056C11.5906 36.6578 11.6184 36.2612 11.6685 35.8654C11.8396 34.515 12.3139 33.2786 13.0588 32.147C13.9395 30.8093 15.1129 29.8036 16.5401 29.0922C17.1841 28.7714 17.8581 28.5351 18.5615 28.3882C18.8249 28.3332 19.0917 28.2939 19.3598 28.2624C19.9652 28.1909 20.5715 28.1949 21.1782 28.2265C21.4217 28.2393 21.664 28.2746 21.9057 28.3121C22.2058 28.3583 22.5012 28.4235 22.794 28.5017C23.5398 28.7011 24.2359 29.0169 24.894 29.4174C26.5808 30.4432 27.7784 31.8885 28.5286 33.7141C28.7476 34.247 28.9112 34.7976 29.0231 35.3624C29.0807 35.6527 29.1217 35.9459 29.1499 36.2414C29.1787 36.5458 29.1894 36.8497 29.1892 37.1548C29.1892 37.5368 29.1533 37.9153 29.1 38.2931C28.9096 39.6414 28.412 40.8688 27.6506 41.9891C26.7765 43.2757 25.6313 44.2511 24.245 44.9449C23.6168 45.2594 22.9611 45.4967 22.2747 45.6428C21.838 45.7359 21.3963 45.8029 20.9484 45.8188C20.7463 45.8261 20.5443 45.8377 20.3981 45.8446Z" fill="white"/>
<path fill-rule="evenodd" clip-rule="evenodd" d="M35.3718 13.9758C35.3718 12.3914 35.3718 10.8072 35.3721 9.22278C35.3721 9.13824 35.3746 9.0537 35.3766 8.96896C35.3774 8.93759 35.4094 8.90785 35.4425 8.90581C35.4676 8.90439 35.493 8.90235 35.5181 8.90215C35.5771 8.90161 35.6361 8.90194 35.6951 8.90194C37.0699 8.90194 38.4444 8.90194 39.819 8.90194C39.895 8.90194 39.9708 8.90072 40.0467 8.90296C40.1146 8.905 40.1446 8.91254 40.1487 9.01337C40.1497 9.03863 40.1495 9.06409 40.1495 9.08956C40.1497 9.14883 40.1495 9.20811 40.1495 9.26739C40.1495 12.0803 40.1489 14.8931 40.1507 17.7058C40.1509 17.9853 40.1539 18.2658 40.1779 18.5439C40.2304 19.1525 40.3362 19.751 40.57 20.3204C40.6892 20.6112 40.835 20.8864 41.0238 21.138C41.1925 21.3629 41.3906 21.5568 41.6169 21.7235C41.9871 21.996 42.4028 22.1398 42.8582 22.1753C43.0604 22.191 43.2619 22.1914 43.4647 22.1789C44.0324 22.1439 44.5261 21.9341 44.954 21.5613C45.1851 21.3601 45.3802 21.1282 45.5404 20.8665C45.7717 20.4884 45.9323 20.0804 46.0378 19.6514C46.1187 19.3228 46.172 18.9891 46.2075 18.6514C46.2403 18.3387 46.2472 18.0262 46.2472 17.7127C46.2472 14.8745 46.2472 12.0363 46.2476 9.19813C46.2476 9.11359 46.2511 9.02905 46.2567 8.94472C46.2576 8.93209 46.2772 8.91254 46.2904 8.9105C46.3318 8.90398 46.3744 8.90235 46.4163 8.90215C46.703 8.90161 46.9897 8.90194 47.2765 8.90194C48.4318 8.90194 49.5872 8.90161 50.7425 8.90215C50.8181 8.90215 50.8938 8.90459 50.9692 8.90968C50.982 8.9105 50.9972 8.92863 51.0047 8.94228C51.0124 8.95633 51.0146 8.97487 51.0148 8.99157C51.016 9.06776 51.0162 9.14394 51.0162 9.22033C51.0162 12.0076 51.0162 14.7951 51.0162 17.5824C51.0162 17.7009 51.0148 17.8197 51.0146 17.9382C51.0132 18.4724 50.981 19.004 50.911 19.5341C50.8188 20.2324 50.6703 20.9166 50.4459 21.5837C50.2263 22.2362 49.9274 22.8495 49.5375 23.4177C48.9981 24.2034 48.3223 24.8426 47.5108 25.338C46.7249 25.8177 45.8796 26.1355 44.973 26.2936C44.415 26.3907 43.8542 26.4423 43.2881 26.4431C42.8493 26.4437 42.4113 26.4323 41.9748 26.3834C40.7034 26.2412 39.5343 25.8273 38.4882 25.0772C37.5772 24.4242 36.8845 23.5859 36.3764 22.589C36.0834 22.0141 35.8748 21.4083 35.7199 20.7826C35.6158 20.3633 35.5372 19.939 35.481 19.5114C35.4492 19.2684 35.4271 19.0236 35.4082 18.7785C35.3699 18.2792 35.3721 17.7798 35.3718 17.2801C35.3718 16.1786 35.3718 15.0772 35.3718 13.9758Z" fill="white"/>
<path fill-rule="evenodd" clip-rule="evenodd" d="M49.749 37.0052C49.749 34.2004 49.7488 31.3956 49.7492 28.591C49.7492 28.2753 49.7168 28.3009 50.0301 28.3007C53.8932 28.3007 57.756 28.3007 61.6191 28.3009C61.6864 28.3009 61.7537 28.3036 61.8211 28.306C61.8539 28.3072 61.8829 28.3378 61.8837 28.3714C61.8851 28.4307 61.8861 28.49 61.8861 28.5492C61.8861 29.5407 61.8861 30.5321 61.8861 31.5235C61.8861 31.7861 61.8866 32.0489 61.8857 32.3114C61.8855 32.3536 61.8821 32.396 61.875 32.4373C61.8726 32.4508 61.8537 32.4705 61.8413 32.4716C61.7576 32.4773 61.6734 32.4813 61.5895 32.4813C59.3376 32.4817 57.0855 32.4815 54.8336 32.4817C54.7492 32.4817 54.6649 32.4838 54.5805 32.4854C54.5651 32.4856 54.5349 32.5204 54.5343 32.5378C54.5335 32.5716 54.5308 32.6054 54.5308 32.6392C54.5306 33.334 54.5306 34.0289 54.5308 34.7237C54.5308 34.7661 54.5337 34.8084 54.5359 34.8506C54.5365 34.8661 54.5702 34.8997 54.5858 34.9003C54.6699 34.9028 54.7543 34.9068 54.8384 34.9068C56.5423 34.9072 58.2459 34.907 59.9497 34.907C60.1689 34.907 60.3883 34.9066 60.6077 34.9074C60.658 34.9076 60.7091 34.9085 60.7588 34.9156C60.7805 34.9189 60.8091 34.929 60.8109 34.9616C60.8133 35.0038 60.8174 35.046 60.8174 35.0879C60.8178 36.2657 60.8178 37.4436 60.8174 38.6214C60.8174 38.6635 60.8153 38.7063 60.8087 38.7479C60.8064 38.7613 60.7888 38.7758 60.7748 38.7829C60.7606 38.7902 60.7421 38.7911 60.7253 38.7915C60.6495 38.7925 60.5737 38.7923 60.4976 38.7925C58.6168 38.7925 56.7359 38.7925 54.8551 38.7925C54.7707 38.7925 54.6864 38.7935 54.602 38.7943C54.5655 38.7945 54.5351 38.821 54.5343 38.8522C54.5333 38.9031 54.5308 38.9538 54.5308 39.0045C54.5306 39.7672 54.5304 40.5299 54.5311 41.2923C54.5311 41.3514 54.5339 41.4105 54.5398 41.4691C54.5412 41.4824 54.5592 41.4975 54.5732 41.5046C54.5874 41.5117 54.6061 41.5117 54.6227 41.5119C54.7071 41.5129 54.7914 41.5131 54.8758 41.5131C57.1783 41.5131 59.4812 41.5131 61.7838 41.5134C61.8679 41.5134 61.9523 41.5154 62.0366 41.5172C62.0603 41.5178 62.1009 41.5608 62.1015 41.5855C62.1029 41.6364 62.1039 41.6871 62.1039 41.738C62.1039 42.9837 62.1039 44.2293 62.1037 45.4748C62.1037 45.5255 62.1017 45.5762 62.0995 45.6269C62.0982 45.6555 62.0617 45.6946 62.0356 45.6952C61.9598 45.697 61.8839 45.6984 61.8081 45.6984C60.3573 45.6987 58.9065 45.6987 57.4557 45.6987C54.9929 45.6987 52.5302 45.6987 50.0672 45.6987C49.9913 45.6987 49.9153 45.6989 49.8395 45.6972C49.7847 45.696 49.7515 45.6585 49.7503 45.5974C49.7488 45.521 49.749 45.4448 49.749 45.3684C49.749 42.5808 49.749 39.7929 49.749 37.0052Z" fill="white"/>
<path fill-rule="evenodd" clip-rule="evenodd" d="M70.7174 45.9083C70.2916 45.9274 69.8875 45.8908 69.4854 45.8496C68.4355 45.7427 67.4054 45.531 66.3946 45.2257C65.6361 44.9965 64.8934 44.7252 64.1768 44.3848C63.8952 44.2512 63.6186 44.1072 63.3495 43.9491C63.3276 43.9364 63.3053 43.9244 63.284 43.911C63.2583 43.8949 63.2423 43.8478 63.2538 43.822C63.2745 43.7757 63.295 43.7295 63.3171 43.6839C63.9373 42.4166 64.5578 41.1492 65.1785 39.8821C65.2044 39.8294 65.234 39.7784 65.2628 39.7269C65.2717 39.7108 65.3135 39.7012 65.3301 39.711C65.4027 39.7538 65.4751 39.7968 65.5475 39.8398C66.4046 40.3498 67.2982 40.7809 68.2418 41.1046C68.5843 41.2221 68.929 41.3325 69.2826 41.4115C69.5624 41.4739 69.8443 41.5201 70.1298 41.5507C70.4327 41.5831 70.7352 41.5935 71.039 41.5869C71.259 41.5824 71.4753 41.5488 71.6868 41.4885C71.8097 41.4535 71.9208 41.3942 72.0153 41.3058C72.1451 41.1846 72.2134 41.0382 72.2185 40.8575C72.2247 40.6314 72.144 40.4442 71.9893 40.2859C71.9003 40.1946 71.7959 40.1233 71.688 40.0561C71.4867 39.9306 71.2699 39.8387 71.0481 39.7579C70.6286 39.6051 70.2005 39.4794 69.7721 39.3549C68.9718 39.1221 68.1788 38.8675 67.4079 38.5467C67.0421 38.3945 66.6842 38.226 66.3377 38.0331C65.9753 37.8314 65.6345 37.5984 65.3236 37.3224C64.691 36.7608 64.28 36.0692 64.1038 35.2369C64.0014 34.7531 63.9669 34.2646 63.9896 33.7722C64.001 33.5272 64.0172 33.2825 64.0513 33.0383C64.1531 32.3074 64.3907 31.6272 64.7697 30.9958C65.1679 30.3319 65.6921 29.789 66.3271 29.3523C66.9445 28.9276 67.6185 28.6259 68.3388 28.4287C68.7127 28.3264 69.0928 28.2557 69.4785 28.2085C69.8905 28.158 70.3027 28.1557 70.716 28.1598C71.3591 28.1661 71.9906 28.2631 72.6177 28.4028C73.8148 28.6699 74.9574 29.0922 76.0651 29.6147C76.3165 29.7332 76.5661 29.8556 76.8164 29.9762C76.8393 29.9872 76.8624 29.9976 76.8847 30.0094C76.9104 30.0229 76.9277 30.0722 76.9157 30.0974C76.8938 30.1431 76.8719 30.1887 76.8486 30.2337C76.2292 31.4258 75.6095 32.6181 74.9896 33.8101C74.9663 33.8547 74.941 33.8985 74.916 33.9423C74.9051 33.9613 74.8666 33.9749 74.8497 33.9664C74.8122 33.9472 74.7745 33.9289 74.7382 33.9077C73.8479 33.3848 72.9073 32.9772 71.9236 32.6676C71.6256 32.5739 71.3233 32.4973 71.0144 32.4555C70.7727 32.4227 70.529 32.3942 70.2837 32.4001C70.0471 32.4056 69.8118 32.4247 69.5835 32.4905C69.487 32.5182 69.3915 32.5545 69.3013 32.5985C69.0685 32.7124 68.9507 32.9098 68.9274 33.163C68.9006 33.4524 68.9959 33.6954 69.2228 33.8824C69.3538 33.9904 69.4974 34.0792 69.6496 34.1524C69.9234 34.2835 70.2076 34.3887 70.4978 34.4771C70.8843 34.5944 71.2718 34.7091 71.6576 34.8287C72.2685 35.0181 72.8789 35.2096 73.475 35.4426C73.8673 35.596 74.2554 35.7592 74.6308 35.9515C75.06 36.1715 75.4649 36.4294 75.836 36.739C76.5619 37.3448 77.0272 38.1103 77.2249 39.0378C77.3565 39.6548 77.3948 40.2781 77.3385 40.9072C77.321 41.1011 77.3046 41.2946 77.277 41.4879C77.0686 42.9562 76.1941 44.1045 75.2324 44.7395C74.6281 45.1385 73.9734 45.4196 73.2755 45.6011C72.8266 45.7178 72.3699 45.8014 71.9092 45.8502C71.5072 45.8928 71.1035 45.9321 70.7174 45.9083Z" fill="white"/>
<path fill-rule="evenodd" clip-rule="evenodd" d="M5.91636 23.3679C5.91636 22.4953 5.91636 21.6228 5.91636 20.7504C5.91636 20.6911 5.91554 20.6316 5.91636 20.5723C5.91737 20.512 5.90378 20.457 5.87459 20.4026C5.81072 20.2837 5.75313 20.1615 5.69189 20.0409C3.85728 16.4251 2.02246 12.8094 0.187637 9.19364C0.153167 9.12601 0.118291 9.05838 0.0852406 8.98993C0.0588812 8.93554 0.0740886 8.90397 0.124983 8.90275C0.150328 8.90214 0.175674 8.90214 0.201019 8.90214C1.81158 8.90214 3.42214 8.90173 5.0325 8.90275C5.18579 8.90275 5.19289 8.87545 5.27014 9.06367C5.73164 10.1889 6.19759 11.3124 6.66111 12.437C7.16965 13.6706 7.67696 14.9049 8.18489 16.1389C8.20415 16.1858 8.22301 16.2328 8.24248 16.2797C8.25241 16.3033 8.26539 16.3231 8.29236 16.3316C8.33149 16.344 8.33108 16.309 8.33879 16.2907C8.52412 15.8554 8.70843 15.4198 8.89234 14.9841C9.71658 13.0308 10.5406 11.0777 11.3649 9.12438C11.3878 9.06999 11.4095 9.01478 11.4336 8.9608C11.4482 8.92821 11.4737 8.90702 11.5106 8.9054C11.5611 8.90315 11.6118 8.90214 11.6623 8.90214C13.2475 8.90193 14.8329 8.90193 16.4182 8.90234C16.4687 8.90234 16.5191 8.9054 16.5694 8.90764C16.5889 8.90845 16.6116 8.94512 16.6037 8.96386C16.5804 9.01804 16.5587 9.07304 16.5317 9.1256C16.158 9.85465 15.7837 10.5835 15.409 11.3122C13.8643 14.3174 12.3197 17.3226 10.775 20.3279C10.7635 20.3505 10.7535 20.3739 10.7405 20.3957C10.6834 20.4927 10.6649 20.5962 10.6653 20.7096C10.668 21.8363 10.6669 22.963 10.6669 24.0897C10.6669 24.759 10.6669 25.4282 10.6665 26.0974C10.6665 26.1481 10.6657 26.1992 10.6602 26.2495C10.6588 26.2628 10.64 26.2821 10.6268 26.2844C10.5856 26.2913 10.5433 26.2937 10.5013 26.2937C10.147 26.2944 9.79282 26.2942 9.43879 26.2942C8.34264 26.2942 7.24649 26.2942 6.15014 26.2942C5.90358 26.2942 5.91615 26.3104 5.91615 26.0617C5.91656 25.1638 5.91636 24.2659 5.91636 23.3679Z" fill="white"/>
</g>
<defs>
<clipPath id="clip0_1951_19017">
<rect width="88" height="55" fill="white"/>
</clipPath>
</defs>
</svg>
