<svg version="1.0" xmlns="http://www.w3.org/2000/svg" preserveAspectRatio="xMidYMid meet" viewBox="376 349.48 272 317.52">  <g transform="translate(0.000000,1024.000000) scale(0.100000,-0.100000)" fill="#FFFFEE" stroke="none"> <path d="M4437 6333 l-677 -417 2 -759 3 -760 675 -414 c371 -227 678 -413 682 -413 4 0 56 30 115 67 183 113 847 519 1050 642 l192 116 1 761 0 761 -292 180 c-601 370 -1048 644 -1061 648 -6 3 -317 -183 -690 -412z m1219 -228 c291 -179 535 -329 542 -333 9 -6 12 -46 10 -166 l-3 -158 -43 61 c-80 114 -221 208 -367 246 -46 12 -119 15 -322 15 l-263 0 0 -651 0 -651 263 5 c292 5 342 13 463 73 84 41 170 115 231 198 l44 59 -3 -128 -3 -128 -490 -301 c-270 -165 -514 -315 -542 -333 -69 -43 -75 -35 -71 104 2 59 2 478 1 931 l-3 822 -123 0 -124 0 -74 -102 c-162 -225 -331 -453 -337 -455 -4 -1 -22 18 -40 43 -17 24 -109 149 -203 276 -132 178 -168 234 -158 241 255 160 1067 655 1075 656 7 1 250 -145 540 -324z m145 -622 c295 -145 297 -575 4 -719 -56 -27 -70 -29 -192 -32 l-133 -4 0 397 0 397 128 -4 c120 -3 131 -5 193 -35z m-1467 -561 c79 -105 102 -130 111 -120 7 7 97 126 201 263 l189 250 3 -624 c1 -343 0 -626 -2 -629 -3 -2 -80 43 -173 100 -92 58 -273 169 -400 247 l-233 143 0 386 0 385 103 -135 c56 -74 147 -194 201 -266z"></path> </g> </svg>
